<?xml version="1.0" encoding="UTF-8" standalone="no"?><!DOCTYPE svg PUBLIC "-//W3C//DTD SVG 1.1//EN" "http://www.w3.org/Graphics/SVG/1.1/DTD/svg11.dtd"><svg width="100%" height="100%" viewBox="0 0 1080 1080" version="1.1" xmlns="http://www.w3.org/2000/svg" xmlns:xlink="http://www.w3.org/1999/xlink" xml:space="preserve" xmlns:serif="http://www.serif.com/" style="fill-rule:evenodd;clip-rule:evenodd;stroke-linecap:round;stroke-linejoin:round;stroke-miterlimit:1.5;"><g><path d="M270,0l540,0l270,270l0,540l-270,270l-540,0l-270,-270l0,-540l270,-270Zm270,135c-223.526,0 -405,181.474 -405,405c0,223.526 181.474,405 405,405c223.526,0 405,-181.474 405,-405c0,-223.526 -181.474,-405 -405,-405Z"/><path d="M405,270l270,-0l135,135l-0,270l-135,135l-270,-0l-135,-135l0,-270l135,-135Z" style="stroke:#000;stroke-width:1px;"/></g></svg>